# xmcd
#
# Track frame offsets: 
#        182
#        19167
#        37362
#
# Disc length: 777 seconds
#
# Revision: 5
# Processed by: cddbd v1.5.2PL0 Copyright (c) Steve Scherf et al.
# Submitted via: ExactAudioCopy v1.3
#
DISCID=23030703
DTITLE=Zapp and Roger - Mega Medley [CDS Promo)
DYEAR=1993
DGENRE=R&B
TTITLE0=Mega Medley (Radio Edit)
TTITLE1=Mega Medley (Mega Mix Show)
TTITLE2=Mega Medley (Mega Medley With Bonus Beats)
EXTD=
EXTT0=
EXTT1=
EXTT2=
PLAYORDER=
